<svg width="90" height="91" viewBox="0 0 90 91" fill="none" xmlns="http://www.w3.org/2000/svg">
<g opacity="0.2">
<path d="M37.3529 7.7073L7.64712 37.6475C3.42373 41.9042 3.42373 48.8057 7.64712 53.0624L37.3529 83.0027C41.5763 87.2594 48.4237 87.2594 52.6471 83.0027L82.3529 53.0625C86.5763 48.8057 86.5763 41.9042 82.3529 37.6475L52.6471 7.7073C48.4237 3.45058 41.5763 3.45058 37.3529 7.7073Z" fill="#AAAAAA"/>
<path d="M81.8341 39.036L68.3034 25.3985C67.3393 24.4269 65.7728 24.4269 64.8087 25.3985L61.2522 28.9831C60.2882 29.9547 60.2882 31.5337 61.2522 32.5053L73.2689 44.6168C73.8343 45.1867 73.8652 46.0836 73.3337 46.6193C72.8023 47.1549 71.9526 47.1643 71.3871 46.5944L59.3303 34.4424C58.3663 33.4708 56.7997 33.4708 55.8356 34.4424L52.2792 38.027C51.3151 38.9986 51.3151 40.5776 52.2792 41.5492L64.2896 53.6669C64.8551 54.2368 64.8489 55.1711 64.2834 55.741C63.718 56.3109 62.7972 56.3109 62.2317 55.741L33.6749 26.9588C30.0288 23.2839 24.1147 23.2839 20.4655 26.9588C17.904 29.5405 17.1902 33.2714 18.2284 36.5259C14.8697 35.1867 10.9486 35.9061 8.23261 38.6436C4.58653 42.3184 4.58653 48.2792 8.23261 51.9572L10.2998 54.0406L21.5933 65.4233C22.5574 66.395 24.124 66.395 25.088 65.4233L28.6445 61.8388C29.6085 60.8671 29.6085 59.2882 28.6445 58.3165L17.1871 46.7594C16.6217 46.1895 16.5939 45.2895 17.1223 44.7569C17.6506 44.2244 18.5374 44.2555 19.106 44.8254L30.5664 56.3763C31.5305 57.348 33.097 57.348 34.0611 56.3763L37.6176 52.7918C38.5816 51.8201 38.5816 50.2412 37.6176 49.2695L26.1571 37.7186C25.5917 37.1487 25.5917 36.2207 26.1571 35.6508C26.7226 35.0808 27.6434 35.0808 28.2088 35.6508L56.6266 64.4361C60.2727 68.111 66.1868 68.111 69.836 64.4361C72.4964 61.7547 73.1514 57.8338 71.9309 54.4953C75.2711 55.794 79.1397 55.059 81.8341 52.3433C85.4801 48.6685 85.4801 42.7077 81.8341 39.0298" fill="white"/>
</g>
</svg>
